HIERARCHY
ROOT Hips
{
  OFFSET 1.44925e-005 102.336 -0.101585
  CHANNELS 6 Xposition Yposition Zposition Zrotation Xrotation Yrotation
  JOINT LeftUpLeg
  {
    OFFSET 8.9458 -8.66707 0.101652
    CHANNELS 3 Zrotation Xrotation Yrotation
    JOINT LeftLeg
    {
      OFFSET 0 -44.4227 1.3727
      CHANNELS 3 Zrotation Xrotation Yrotation
      JOINT LeftFoot
      {
        OFFSET -0.253549 -42.0924 -1.46059
        CHANNELS 3 Zrotation Xrotation Yrotation
        JOINT LeftToes
        {
          OFFSET -0.04 -4.41509 8.4991
          CHANNELS 3 Zrotation Xrotation Yrotation
          End Site
          {
            OFFSET 0.08 -0.047448 9.77979
          }
        }
      }
    }
  }
  JOINT Spine
  {
    OFFSET 0 11.8905 0
    CHANNELS 3 Zrotation Xrotation Yrotation
    JOINT Spine1
    {
      OFFSET 0 25.6574 0.127663
      CHANNELS 3 Zrotation Xrotation Yrotation
      JOINT RightShoulder
      {
        OFFSET -8.99 -0.362252 -0.22
        CHANNELS 3 Zrotation Xrotation Yrotation
        JOINT RightArm
        {
          OFFSET -10.2827 -0.00338 0.322123
          CHANNELS 3 Zrotation Xrotation Yrotation
          JOINT RightForeArm
          {
            OFFSET -26.364 0.099144 -1.42434
            CHANNELS 3 Zrotation Xrotation Yrotation
            JOINT RightHand
            {
              OFFSET -22.0324 0.085362 1.02216
              CHANNELS 3 Zrotation Xrotation Yrotation
              End Site
              {
                OFFSET -13.3284 -0.6 1.50291
              }
            }
          }
        }
      }
      JOINT LeftShoulder1
      {
        OFFSET 8.99 -0.362252 -0.22
        CHANNELS 3 Zrotation Xrotation Yrotation
        JOINT LeftArm
        {
          OFFSET 10.2827 -0.00337999 0.322123
          CHANNELS 3 Zrotation Xrotation Yrotation
          JOINT LeftForeArm
          {
            OFFSET 26.2597 0.099144 -1.42434
            CHANNELS 3 Zrotation Xrotation Yrotation
            JOINT LeftHand
            {
              OFFSET 22.0902 0.085362 1.02216
              CHANNELS 3 Zrotation Xrotation Yrotation
              End Site
              {
                OFFSET 13.419 -0.6 1.50291
              }
            }
          }
        }
      }
      JOINT Head
      {
        OFFSET 0 8.73416 0.011341
        CHANNELS 3 Zrotation Xrotation Yrotation
        End Site
        {
          OFFSET -0.29 12.7742 2.51395
        }
      }
    }
  }
  JOINT RightUpLeg
  {
    OFFSET -8.9458 -8.66707 0.101652
    CHANNELS 3 Zrotation Xrotation Yrotation
    JOINT RightLeg
    {
      OFFSET 0 -44.4227 1.3727
      CHANNELS 3 Zrotation Xrotation Yrotation
      JOINT RightFoot
      {
        OFFSET 0.253549 -42.0924 -1.46059
        CHANNELS 3 Zrotation Xrotation Yrotation
        JOINT RightToes
        {
          OFFSET 0.04 -4.41509 8.4991
          CHANNELS 3 Zrotation Xrotation Yrotation
          End Site
          {
            OFFSET -0.08 -0.137448 9.77979
          }
        }
      }
    }
  }
}
MOTION
Frames:	16
Frame Time:	0.0333333
-1.04305 68.8992 0.432329 -9.55501 5.08739 -98.7488 11.0955 -56.0325 5.15236 172.18 83.1553 -152.122 -10.9507 -28.761 -1.94927 -1.33444e-009 8.75229e-006 -1.46861e-008 12.7965 47.4955 -2.90505 -3.85717 0.601963 2.59234 26.1586 1.71839 1.13926 25.1594 21.5872 30.1431 12.3324 9.24581 14.4153 -10.9335 9.7279 -3.54673 -41.8408 3.22022 -3.16683 -24.9311 -2.37954 -13.5788 3.45468 29.0539 -34.1713 5.82328 9.61819 -0.917488 -2.93636 -31.4681 -4.23138 7.09667 -56.8356 3.14081 -171.328 84.059 153.71 -22.3719 -30.7017 -5.13184 0.0462048 0.000530889 0.662642 
-2.82868 67.8759 0.293703 -6.43431 5.23144 -98.6028 12.617 -60.0217 5.9286 174.701 80.0033 -155.294 -11.7116 -28.9864 -2.12467 -1.33444e-009 8.75229e-006 -1.46861e-008 12.0446 49.7706 -2.90516 -3.20647 0.56048 2.35771 27.8683 1.76787 1.05859 23.1462 31.9425 26.3691 12.1112 5.46865 16.8055 -10.3546 9.68773 -2.95838 -42.6438 3.25438 -3.11864 -23.2637 9.43929 -9.49462 2.23742 28.2256 -30.8377 5.82328 9.61819 -0.917488 -2.49111 -36.9199 -3.35122 9.50272 -60.5483 5.54205 -174.006 81.1295 155.746 -20.5952 -30.757 -4.74647 0.0462048 0.000530889 0.662642 
-4.23358 67.7521 0.22065 -3.85423 5.01737 -98.7488 13.5455 -62.4371 6.49392 175.46 78.4215 -156.365 -13.2339 -29.8687 -2.53058 -1.33444e-009 8.75229e-006 -1.46861e-008 10.9766 51.8182 -2.78075 -3.13543 1.32962 2.22848 29.7461 1.81189 0.947287 23.1795 40.8255 21.9169 11.7232 1.96599 19.8407 -10.5064 9.65182 -2.55163 -43.6966 3.31291 -3.08439 -23.9791 16.9486 -3.96242 3.02477 29.2956 -31.1108 5.82328 9.61819 -0.917488 -1.71259 -41.6166 -2.47428 11.6345 -62.696 8.26225 -174.645 79.7661 155.444 -19.2613 -32.1202 -4.72335 0.0462048 0.000530889 0.662642 
-5.49812 67.9789 0.18386 -1.15734 4.70771 -98.7268 13.5781 -64.4786 6.3627 175.575 78.1014 -156.421 -14.2793 -30.4435 -2.82088 -1.33444e-009 8.75229e-006 -1.46861e-008 10.3252 52.9481 -2.51633 -3.168 1.44313 2.23768 31.3096 1.83191 0.816686 28.242 43.9614 13.817 11.636 1.57043 20.8063 -9.30914 9.69373 -2.73351 -44.3958 3.36089 -3.07705 -27.2699 20.9779 2.37187 2.05863 28.337 -28.9612 5.82328 9.61819 -0.917488 -1.7314 -44.2961 -2.61119 13.5084 -64.249 10.7036 -174.451 79.7498 154.131 -18.3395 -33.5152 -4.77543 0.0462048 0.000530889 0.662642 
-6.72841 68.1506 0.160733 1.44013 4.64095 -98.5636 13.6077 -66.4499 6.20761 175.573 77.9779 -156.107 -14.3163 -30.5149 -2.8386 -1.33444e-009 8.75229e-006 -1.46861e-008 10.1189 53.6084 -2.23519 -3.00984 0.863541 2.3358 32.6091 1.83232 0.672741 34.4794 44.6999 4.63999 11.4416 2.03679 20.8907 -7.68675 9.74333 -2.93274 -45.1109 3.41765 -3.07399 -31.1767 23.8277 9.00433 0.261257 25.9107 -25.9888 5.82328 9.61819 -0.917488 -2.18163 -45.9741 -3.23839 15.3688 -65.7505 12.7291 -174.266 79.856 153.242 -17.7128 -33.8462 -4.68187 0.0462048 0.000530889 0.662642 
-7.79397 68.4954 0.14908 3.47743 4.75043 -98.3882 13.687 -67.6413 6.09538 175.457 78.0786 -155.43 -14.5786 -31.1775 -2.98506 -1.33444e-009 8.75229e-006 -1.46861e-008 9.92871 54.2591 -2.05601 -2.81153 0.542493 2.39471 33.7873 1.83411 0.553614 39.2142 44.8159 -2.84557 11.2655 2.44915 21.1229 -7.1823 9.74967 -2.85796 -45.7339 3.46436 -3.07351 -34.9365 26.8865 14.9892 -0.499876 24.7509 -24.3222 5.82328 9.61819 -0.917488 -2.02518 -47.7483 -3.37373 16.7307 -66.6775 14.1266 -174.115 79.9925 152.646 -16.9237 -34.2095 -4.54903 0.0462048 0.000530889 0.662642 
-8.67944 69.1855 0.132905 5.0747 4.80131 -98.1267 13.2273 -67.917 5.52287 175.011 78.9678 -154.468 -15.3516 -32.4484 -3.33629 -1.33444e-009 8.75229e-006 -1.46861e-008 9.64558 54.6868 -1.94753 -2.63114 0.607915 2.3662 34.7416 1.8425 0.478582 42.413 44.391 -8.46148 11.3922 2.50251 21.7581 -7.21285 9.75319 -2.93697 -45.7751 3.46502 -3.07442 -38.6776 29.7369 19.8189 -0.417069 25.2469 -23.6015 5.82328 9.61819 -0.917488 -1.45664 -49.2472 -3.17785 17.1762 -66.7784 14.7206 -173.471 80.8343 151.399 -15.9017 -35.2125 -4.46007 0.0462048 0.000530889 0.662642 
-9.50843 69.9548 0.102456 6.51046 4.73397 -97.7504 12.4877 -67.927 4.79131 174.324 80.2792 -153.665 -15.5718 -33.2743 -3.50866 -1.33444e-009 8.75229e-006 -1.46861e-008 9.4212 54.7351 -1.80537 -2.38613 0.482348 2.32078 35.3546 1.84833 0.430865 44.685 42.9383 -13.029 11.4535 3.25608 22.6365 -6.87128 9.77155 -3.15569 -45.3341 3.43031 -3.07564 -41.8023 31.3422 23.5952 -0.297359 26.0955 -23.2198 5.82328 9.61819 -0.917488 -1.34099 -50.0205 -3.30496 17.0904 -66.6046 14.8036 -172.256 82.1254 149.546 -15.1092 -35.9816 -4.3769 0.0462048 0.000530889 0.662642 
-10.2932 70.6122 0.0825562 7.73058 4.61788 -97.4052 12.1067 -68.0198 4.56487 173.713 81.2852 -153.215 -15.1235 -33.4225 -3.42241 -1.33444e-009 8.75229e-006 -1.46861e-008 9.32874 54.684 -1.67368 -2.18962 0.107912 2.31224 35.69 1.84791 0.397827 46.203 41.3498 -16.5056 11.1548 4.62601 23.4744 -6.43657 9.77802 -3.11437 -44.9093 3.39537 -3.0763 -43.8608 32.2302 26.4852 -0.412762 25.9198 -23.1717 5.82328 9.61819 -0.917488 -1.61469 -50.6371 -3.63802 16.899 -66.5705 14.765 -171.063 83.1023 147.969 -14.6965 -36.0736 -4.28012 0.0462048 0.000530889 0.662642 
-10.9815 71.2687 0.0932731 8.62888 4.49571 -97.1707 12.0194 -67.9646 4.73704 173.143 82.0493 -152.777 -14.9125 -33.5056 -3.38312 -1.33444e-009 8.75229e-006 -1.46861e-008 9.33183 54.7049 -1.6468 -2.17482 -0.13817 2.32279 35.8896 1.84971 0.383439 46.8535 40.3319 -18.3553 10.941 5.37714 23.8698 -6.43205 9.77099 -2.96322 -44.6702 3.37402 -3.07773 -44.7307 32.7798 28.2096 -0.542755 25.1944 -23.4264 5.82328 9.61819 -0.917488 -1.65593 -51.6246 -3.73547 16.5977 -66.4819 14.7015 -170.03 83.7846 146.743 -14.3249 -36.0389 -4.17479 0.0462048 0.000530889 0.662642 
-11.6098 71.9863 0.113423 9.32367 4.36803 -96.9669 11.741 -67.6307 4.71886 172.254 82.985 -151.979 -15.0227 -33.6879 -3.4357 -1.33444e-009 8.75229e-006 -1.46861e-008 9.30759 54.6411 -1.61927 -2.14922 -0.241472 2.33744 36.0176 1.85705 0.38868 46.7038 39.9133 -18.6713 11.1284 4.89493 23.7266 -6.71793 9.77239 -3.11101 -44.522 3.36435 -3.07972 -44.4062 32.869 28.3689 -0.750443 24.7541 -23.3886 5.82328 9.61819 -0.917488 -1.45918 -52.6607 -3.70554 16.0865 -66.141 14.466 -168.384 84.6351 144.921 -13.9238 -36.1474 -4.0833 0.0462048 0.000530889 0.662642 
-12.2194 72.6956 0.119543 9.94105 4.2423 -96.7538 11.1882 -67.17 4.36219 170.851 84.0801 -150.671 -14.8918 -33.6775 -3.40232 -1.33444e-009 8.75229e-006 -1.46861e-008 9.13304 54.4082 -1.41478 -1.8689 -0.412863 2.37251 36.0074 1.86383 0.405735 45.924 39.9014 -17.7448 11.2901 4.15788 23.2481 -6.96749 9.78027 -3.36297 -44.5107 3.36822 -3.08108 -42.9339 32.5462 26.8401 -1.30106 24.6713 -22.5915 5.82328 9.61819 -0.917488 -1.44262 -53.3743 -3.87738 15.4166 -65.6469 13.9448 -165.385 85.7003 141.737 -13.7714 -36.1663 -4.04503 0.0462048 0.000530889 0.662642 
-12.7677 73.4626 0.11744 10.4511 4.13694 -96.5966 10.5776 -66.5835 3.88494 168.558 85.2574 -148.341 -14.6117 -33.4783 -3.30641 -1.33444e-009 8.75229e-006 -1.46861e-008 8.8884 54.1356 -1.11396 -1.47996 -0.601002 2.42248 35.8186 1.8652 0.427057 44.4935 40.2208 -15.3341 11.0955 3.84991 22.5146 -7.12816 9.76898 -3.20147 -44.6897 3.38292 -3.0804 -40.0397 31.1989 23.5869 -2.07001 25.2911 -21.4006 5.82328 9.61819 -0.917488 -1.61418 -53.9743 -4.16763 14.6954 -65.0134 13.2402 -159.532 86.8838 135.692 -13.9185 -36.0645 -4.06962 0.0462048 0.000530889 0.662642 
-13.2222 74.4698 0.111478 10.8384 4.05255 -96.5179 9.9866 -65.6851 3.38206 162.836 86.796 -142.413 -14.5485 -33.2417 -3.2586 -1.33444e-009 8.75229e-006 -1.46861e-008 8.76061 53.8951 -0.936332 -1.29132 -0.727973 2.44827 35.6287 1.8641 0.442846 41.9797 40.1624 -11.0314 10.8503 3.54862 21.4159 -7.23704 9.73625 -2.62916 -44.9232 3.39752 -3.0754 -36.2063 28.4581 19.1562 -2.70171 25.8748 -20.512 5.82328 9.61819 -0.917488 -1.66842 -54.7204 -4.28633 14.0013 -64.0869 12.5655 -139.548 88.3126 115.513 -14.1988 -35.9121 -4.12194 0.0462048 0.000530889 0.662642 
-13.6197 75.7752 0.0840925 11.1942 3.96052 -96.4607 9.37365 -64.4316 2.83171 130.092 88.7566 -109.455 -14.4331 -32.8221 -3.17418 -1.33444e-009 8.75229e-006 -1.46861e-008 8.68841 53.585 -0.863705 -1.26742 -0.955633 2.42815 35.6737 1.86497 0.443158 38.0648 37.1971 -5.0328 10.8447 4.06952 19.7552 -7.28138 9.71159 -2.19444 -45.1581 3.41419 -3.07519 -32.2725 24.4813 14.2113 -3.17147 25.2329 -20.1176 5.82328 9.61819 -0.917488 -1.56021 -55.5078 -4.18006 13.3644 -62.8503 12.0148 -48.1588 88.5254 23.9961 -14.5987 -35.4843 -4.16246 0.0462048 0.000530889 0.662642 
-13.9847 77.3352 0.0251509 11.5446 3.84211 -96.3969 8.69015 -62.867 2.19363 24.4216 87.687 -3.56731 -13.8999 -32.0597 -2.94987 -1.33444e-009 8.75229e-006 -1.46861e-008 8.41407 53.0832 -0.685541 -1.11901 -1.35796 2.37806 35.8948 1.86669 0.431653 34.268 29.0923 1.27283 10.8511 6.8649 17.6528 -7.44766 9.70901 -2.22726 -45.5615 3.44962 -3.08661 -28.7106 19.4244 9.02067 -3.38765 23.6423 -20.2434 5.82328 9.61819 -0.917488 -1.46475 -56.1596 -3.94635 12.7513 -61.3498 11.5326 -15.9449 85.9967 -8.25233 -15.1441 -34.6243 -4.16889 0.0462048 0.000530889 0.662642 
